<svg width="15" height="16" viewBox="0 0 15 16" fill="none" xmlns="http://www.w3.org/2000/svg">
<g clip-path="url(#clip0_2_2)">
<path d="M6.0001 0.277334C6.09772 0.395951 6.15752 0.541116 6.17178 0.694073C6.18604 0.84703 6.15411 1.00075 6.0801 1.13537C5.50195 2.19689 5.20002 3.38676 5.20209 4.59551C5.20209 8.61668 8.48015 11.8728 12.5202 11.8728C13.0472 11.8728 13.5602 11.8178 14.0532 11.7128C14.2044 11.6801 14.3618 11.6926 14.5058 11.7488C14.6499 11.805 14.7742 11.9024 14.8633 12.0288C14.9572 12.1603 15.0052 12.3191 14.9996 12.4806C14.994 12.6421 14.9351 12.7972 14.8323 12.9219C14.0479 13.8853 13.0585 14.6616 11.936 15.1941C10.8136 15.7267 9.58648 16.002 8.34414 16C3.73406 16 0 12.2858 0 7.70964C0 4.2655 2.11404 1.31138 5.12409 0.0593244C5.27403 -0.00404638 5.44048 -0.0170529 5.59845 0.0222585C5.75641 0.06157 5.89735 0.151077 6.0001 0.277334Z" fill="#192252"/>
<path d="M9.29628 5.66147C9.30703 5.62759 9.32775 5.59811 9.35549 5.57722C9.38323 5.55632 9.41657 5.54508 9.45079 5.54508C9.48501 5.54508 9.51835 5.55632 9.54609 5.57722C9.57383 5.59811 9.59455 5.62759 9.60531 5.66147L9.89558 6.57048C10.0253 6.97571 10.3299 7.29332 10.7184 7.42865L11.59 7.73139C11.6225 7.74261 11.6507 7.76422 11.6708 7.79315C11.6908 7.82208 11.7016 7.85686 11.7016 7.89254C11.7016 7.92823 11.6908 7.96301 11.6708 7.99194C11.6507 8.02087 11.6225 8.04248 11.59 8.0537L10.7184 8.35644C10.5268 8.42302 10.3527 8.53524 10.2098 8.6842C10.067 8.83315 9.95942 9.01475 9.89558 9.2146L9.60531 10.1236C9.59455 10.1575 9.57383 10.187 9.54609 10.2079C9.51835 10.2288 9.48501 10.24 9.45079 10.24C9.41657 10.24 9.38323 10.2288 9.35549 10.2079C9.32775 10.187 9.30703 10.1575 9.29628 10.1236L9.006 9.2146C8.94216 9.01475 8.83456 8.83315 8.69174 8.6842C8.54892 8.53524 8.3748 8.42302 8.18318 8.35644L7.3116 8.0537C7.27912 8.04248 7.25085 8.02087 7.23082 7.99194C7.21078 7.96301 7.2 7.92823 7.2 7.89254C7.2 7.85686 7.21078 7.82208 7.23082 7.79315C7.25085 7.76422 7.27912 7.74261 7.3116 7.73139L8.18318 7.42865C8.3748 7.36207 8.54892 7.24985 8.69174 7.10089C8.83456 6.95194 8.94216 6.77034 9.006 6.57048L9.29628 5.66147ZM11.5982 3.27629C11.6056 3.25401 11.6195 3.2347 11.6379 3.22103C11.6563 3.20736 11.6784 3.20001 11.701 3.20001C11.7236 3.20001 11.7456 3.20736 11.7641 3.22103C11.7825 3.2347 11.7963 3.25401 11.8038 3.27629L11.9973 3.88177C12.0835 4.15244 12.2868 4.36444 12.5463 4.45441L13.1269 4.65624C13.1482 4.66396 13.1667 4.67843 13.1799 4.69764C13.193 4.71684 13.2 4.73983 13.2 4.76341C13.2 4.78698 13.193 4.80997 13.1799 4.82918C13.1667 4.84839 13.1482 4.86286 13.1269 4.87058L12.5463 5.07241C12.4184 5.11678 12.3022 5.19164 12.2069 5.29105C12.1116 5.39045 12.0398 5.51165 11.9973 5.64504L11.8038 6.25053C11.7963 6.27281 11.7825 6.29212 11.7641 6.30579C11.7456 6.31946 11.7236 6.32681 11.701 6.32681C11.6784 6.32681 11.6563 6.31946 11.6379 6.30579C11.6195 6.29212 11.6056 6.27281 11.5982 6.25053L11.4047 5.64504C11.3622 5.51165 11.2904 5.39045 11.1951 5.29105C11.0998 5.19164 10.9836 5.11678 10.8557 5.07241L10.2751 4.87058C10.2538 4.86286 10.2352 4.84839 10.2221 4.82918C10.209 4.80997 10.202 4.78698 10.202 4.76341C10.202 4.73983 10.209 4.71684 10.2221 4.69764C10.2352 4.67843 10.2538 4.66396 10.2751 4.65624L10.8557 4.45441C11.1152 4.36444 11.3185 4.15244 11.4047 3.88177L11.5982 3.27707V3.27629Z" fill="#192252"/>
</g>
<defs>
<clipPath id="clip0_2_2">
<rect width="15" height="16" fill="white"/>
</clipPath>
</defs>
</svg>
