<svg width="15" height="15" viewBox="0 0 15 15" fill="none" xmlns="http://www.w3.org/2000/svg">
<path d="M7.33333 11C5.30829 11 3.66667 9.35839 3.66667 7.33334C3.66667 5.3083 5.30829 3.66668 7.33333 3.66668C9.35838 3.66668 11 5.3083 11 7.33334C11 9.35839 9.35838 11 7.33333 11ZM7.33333 10.3333C8.99019 10.3333 10.3333 8.9902 10.3333 7.33334C10.3333 5.67649 8.99019 4.33334 7.33333 4.33334C5.67648 4.33334 4.33333 5.67649 4.33333 7.33334C4.33333 8.9902 5.67648 10.3333 7.33333 10.3333ZM7.66667 2.66668C7.66667 2.85077 7.51743 3.00001 7.33333 3.00001C7.14924 3.00001 7 2.85077 7 2.66668V0.666677C7 0.482582 7.14924 0.333344 7.33333 0.333344C7.51743 0.333344 7.66667 0.482582 7.66667 0.666677V2.66668ZM7.66667 14C7.66667 14.1841 7.51743 14.3333 7.33333 14.3333C7.14924 14.3333 7 14.1841 7 14V12C7 11.8159 7.14924 11.6667 7.33333 11.6667C7.51743 11.6667 7.66667 11.8159 7.66667 12V14ZM10.8689 4.26921C10.7387 4.39939 10.5276 4.39939 10.3975 4.26921C10.2673 4.13904 10.2673 3.92798 10.3975 3.79781L11.7643 2.43097C11.8945 2.3008 12.1055 2.3008 12.2357 2.43097C12.3659 2.56115 12.3659 2.7722 12.2357 2.90238L10.8689 4.26921ZM2.90237 12.2357C2.77219 12.3659 2.56114 12.3659 2.43096 12.2357C2.30079 12.1055 2.30079 11.8945 2.43096 11.7643L3.7978 10.3975C3.92797 10.2673 4.13903 10.2673 4.2692 10.3975C4.39938 10.5276 4.39938 10.7387 4.2692 10.8689L2.90237 12.2357ZM12 7.66668C11.8159 7.66668 11.6667 7.51744 11.6667 7.33334C11.6667 7.14925 11.8159 7.00001 12 7.00001H14C14.1841 7.00001 14.3333 7.14925 14.3333 7.33334C14.3333 7.51744 14.1841 7.66668 14 7.66668H12ZM0.666665 7.66668C0.48257 7.66668 0.333332 7.51744 0.333332 7.33334C0.333332 7.14925 0.48257 7.00001 0.666665 7.00001H2.66667C2.85076 7.00001 3 7.14925 3 7.33334C3 7.51744 2.85076 7.66668 2.66667 7.66668H0.666665ZM10.3975 10.8689C10.2673 10.7387 10.2673 10.5276 10.3975 10.3975C10.5276 10.2673 10.7387 10.2673 10.8689 10.3975L12.2357 11.7643C12.3659 11.8945 12.3659 12.1055 12.2357 12.2357C12.1055 12.3659 11.8945 12.3659 11.7643 12.2357L10.3975 10.8689ZM2.43096 2.90238C2.30079 2.7722 2.30079 2.56115 2.43096 2.43097C2.56114 2.3008 2.77219 2.3008 2.90237 2.43097L4.2692 3.79781C4.39938 3.92798 4.39938 4.13904 4.2692 4.26921C4.13903 4.39939 3.92797 4.39939 3.7978 4.26921L2.43096 2.90238Z" fill="white"/>
</svg>
