<svg width="35" height="32" viewBox="0 0 35 32" fill="none" xmlns="http://www.w3.org/2000/svg">
<g clip-path="url(#clip0_659_147)">
<path d="M34.0282 6.078C32.7711 6.6 31.4317 6.946 30.0352 7.114C31.4718 6.302 32.5683 5.026 33.0838 3.488C31.7444 4.244 30.2655 4.778 28.6894 5.076C27.4176 3.794 25.6049 3 23.6275 3C19.7908 3 16.7021 5.948 16.7021 9.562C16.7021 10.082 16.7486 10.582 16.8627 11.058C11.1014 10.792 6.00351 8.178 2.57886 4.196C1.98098 5.178 1.63027 6.302 1.63027 7.512C1.63027 9.784 2.86619 11.798 4.70844 12.964C3.59506 12.944 2.50281 12.638 1.57745 12.156C1.57745 12.176 1.57745 12.202 1.57745 12.228C1.57745 15.416 3.97957 18.064 7.12957 18.674C6.56548 18.82 5.95069 18.89 5.31267 18.89C4.869 18.89 4.42112 18.866 4.00069 18.778C4.89858 21.376 7.44647 23.286 10.476 23.348C8.1183 25.094 5.12464 26.146 1.88379 26.146C1.31548 26.146 0.770412 26.122 0.225342 26.056C3.29506 27.93 6.93309 29 10.8563 29C23.6084 29 30.5803 19 30.5803 10.332C30.5803 10.042 30.5697 9.762 30.5549 9.484C31.9303 8.56 33.0859 7.406 34.0282 6.078Z" fill="white"/>
</g>
<defs>
<clipPath id="clip0_659_147">
<rect width="33.8028" height="32" fill="white" transform="translate(0.225342)"/>
</clipPath>
</defs>
</svg>
