<svg width="35" height="32" viewBox="0 0 35 32" fill="none" xmlns="http://www.w3.org/2000/svg">
<g clip-path="url(#clip0_659_153)">
<path d="M24.8545 0H9.70847C4.56496 0 0.380371 3.9616 0.380371 8.83079V23.169C0.380371 28.0384 4.56496 31.9998 9.70847 31.9998H24.8545C29.9984 31.9998 34.183 28.0382 34.183 23.169V8.83079C34.1832 3.9616 29.9984 0 24.8545 0ZM31.1841 23.169C31.1841 26.4729 28.3447 29.1606 24.8547 29.1606H9.70847C6.21868 29.1608 3.3795 26.4729 3.3795 23.169V8.83079C3.3795 5.52712 6.21868 2.83918 9.70847 2.83918H24.8545C28.3445 2.83918 31.1839 5.52712 31.1839 8.83079V23.169H31.1841Z" fill="white"/>
<path d="M17.2816 7.75482C12.4788 7.75482 8.57153 11.4537 8.57153 16.0004C8.57153 20.5468 12.4788 24.2455 17.2816 24.2455C22.0844 24.2455 25.9917 20.5468 25.9917 16.0004C25.9917 11.4537 22.0844 7.75482 17.2816 7.75482ZM17.2816 21.4062C14.1327 21.4062 11.5707 18.9811 11.5707 16.0002C11.5707 13.019 14.1325 10.5938 17.2816 10.5938C20.4307 10.5938 22.9926 13.019 22.9926 16.0002C22.9926 18.9811 20.4305 21.4062 17.2816 21.4062Z" fill="white"/>
<path d="M26.3573 5.34735C25.7795 5.34735 25.2118 5.56881 24.8038 5.95683C24.3937 6.34296 24.158 6.88051 24.158 7.42941C24.158 7.97662 24.3939 8.51398 24.8038 8.902C25.2116 9.28813 25.7795 9.51148 26.3573 9.51148C26.9371 9.51148 27.503 9.28813 27.9129 8.902C28.3227 8.51398 28.5567 7.97643 28.5567 7.42941C28.5567 6.88051 28.3227 6.34296 27.9129 5.95683C27.505 5.56881 26.9371 5.34735 26.3573 5.34735Z" fill="white"/>
</g>
<defs>
<clipPath id="clip0_659_153">
<rect width="33.8028" height="32" fill="white" transform="translate(0.380371)"/>
</clipPath>
</defs>
</svg>
